<svg version="1.1" id="Layer_1" xmlns="http://www.w3.org/2000/svg" xmlns:xlink="http://www.w3.org/1999/xlink" x="0px" y="0px"
	 width="20" viewBox="0 0 3712 512" xml:space="preserve">
<defs>
  <style>
    :root {
      --main-fill: #0F6FFD;
      --accent-fill: #FEFEFF;
    }
  </style>
</defs>
<rect width="100%" height="100%" style="fill: var(--main-fill);"></rect>

<g id="icon-group">
	<path fill="var(--main-fill)" opacity="1.000000" stroke="none" 
		d="M308.000000,513.000000 
		C205.358261,513.000000 103.216515,513.000000 1.037387,513.000000 
		C1.037387,342.399902 1.037387,171.799789 1.037387,1.099841 
		C171.558426,1.099841 342.116913,1.099841 512.837708,1.099841 
		C512.837708,171.666534 512.837708,342.333252 512.837708,513.000000 
		C444.799774,513.000000 376.649872,513.000000 308.000000,513.000000, M57.004810,355.440033 
		C61.584072,363.966309 65.762970,372.737732 70.808800,380.978333 
		C99.504013,427.841949 139.527603,460.467133 192.135147,477.413666 
		C211.391418,483.616760 230.998734,487.195068 251.159714,487.251495 
		C307.989319,487.410522 364.820221,487.426331 421.648895,487.147766 
		C428.308044,487.115143 435.460114,486.065186 441.517700,483.467468 
		C461.614746,474.849213 474.697083,455.326843 474.843719,434.289581 
		C475.106232,396.627899 475.019440,358.963837 475.093597,321.300751 
		C475.126434,304.636047 475.013245,287.968353 475.289398,271.307373 
		C475.753845,243.284836 473.483551,215.703369 465.379150,188.640152 
		C459.727661,169.767929 452.289490,151.703323 442.079651,135.034637 
		C415.877594,92.256813 380.333588,60.173859 333.121979,41.526711 
		C311.463013,32.972080 289.203247,28.071373 266.076935,26.858912 
		C234.620392,25.209717 204.215195,30.455154 175.155762,42.465771 
		C143.433838,55.576836 116.150795,75.270576 93.740181,101.233459 
		C67.417587,131.728409 49.852383,166.673721 41.497841,206.326843 
		C37.869228,223.549301 36.064148,240.852921 36.108044,258.294464 
		C36.192398,291.814575 42.866108,324.074677 57.004810,355.440033 
	z"/>
	<path fill="var(--accent-fill)" opacity="1.000000" stroke="none" 
		d="
	M56.884518,355.075439 
		C42.866108,324.074677 36.192398,291.814575 36.108044,258.294464 
		C36.064148,240.852921 37.869228,223.549301 41.497841,206.326843 
		C49.852383,166.673721 67.417587,131.728409 93.740181,101.233459 
		C116.150795,75.270576 143.433838,55.576836 175.155762,42.465771 
		C204.215195,30.455154 234.620392,25.209717 266.076935,26.858912 
		C289.203247,28.071373 311.463013,32.972080 333.121979,41.526711 
		C380.333588,60.173859 415.877594,92.256813 442.079651,135.034637 
		C452.289490,151.703323 459.727661,169.767929 465.379150,188.640152 
		C473.483551,215.703369 475.753845,243.284836 475.289398,271.307373 
		C475.013245,287.968353 475.126434,304.636047 475.093597,321.300751 
		C475.019440,358.963837 475.106232,396.627899 474.843719,434.289581 
		C474.697083,455.326843 461.614746,474.849213 441.517700,483.467468 
		C435.460114,486.065186 428.308044,487.115143 421.648895,487.147766 
		C364.820221,487.426331 307.989319,487.410522 251.159714,487.251495 
		C230.998734,487.195068 211.391418,483.616760 192.135147,477.413666 
		C139.527603,460.467133 99.504013,427.841949 70.808800,380.978333 
		C65.762970,372.737732 61.584072,363.966309 56.884518,355.075439 
	M184.568680,125.105255 
		C175.004517,132.546722 164.660843,139.187592 156.031815,147.589462 
		C135.473541,167.606522 122.729935,192.315964 115.664177,220.049973 
		C114.907837,223.018723 115.906151,224.014099 118.488098,225.203445 
		C138.881973,234.597626 145.514908,259.864563 131.786087,277.748962 
		C127.666328,283.115753 121.392426,286.828918 115.530106,291.786102 
		C117.330894,312.492035 137.760880,350.872101 158.748489,369.373108 
		C208.956726,413.632721 264.568665,420.753021 325.367523,391.161804 
		C325.367523,395.332916 325.665161,398.507904 325.297852,401.604004 
		C324.746124,406.254700 326.477814,407.568848 331.086578,407.521118 
		C352.411224,407.300385 373.741516,407.262787 395.064789,407.542816 
		C400.060852,407.608398 401.078827,405.963593 401.063263,401.304718 
		C400.903534,353.486298 400.965179,305.667145 400.965424,257.848175 
		C400.965546,234.992493 396.710083,213.048508 387.145111,192.190277 
		C368.398712,151.309982 337.694977,123.666245 294.767029,110.480766 
		C276.457764,104.857002 257.492737,103.571838 238.119614,106.368500 
		C219.124222,109.110619 201.656265,115.266670 184.568680,125.105255 
	M89.729446,239.284851 
		C80.501167,246.784286 80.034599,264.176483 88.583496,273.849091 
		C96.363464,282.651733 111.333580,283.569794 119.838615,275.803986 
		C130.759399,265.832397 131.751236,251.250824 122.457161,240.286575 
		C114.661064,231.089493 98.593414,229.825745 89.729446,239.284851 
	z"/>
	<path fill="var(--main-fill)" opacity="1.000000" stroke="none" 
		d="
	M184.832458,124.843468 
		C201.656265,115.266670 219.124222,109.110619 238.119614,106.368500 
		C257.492737,103.571838 276.457764,104.857002 294.767029,110.480766 
		C337.694977,123.666245 368.398712,151.309982 387.145111,192.190277 
		C396.710083,213.048508 400.965546,234.992493 400.965424,257.848175 
		C400.965179,305.667145 400.903534,353.486298 401.063263,401.304718 
		C401.078827,405.963593 400.060852,407.608398 395.064789,407.542816 
		C373.741516,407.262787 352.411224,407.300385 331.086578,407.521118 
		C326.477814,407.568848 324.746124,406.254700 325.297852,401.604004 
		C325.665161,398.507904 325.367523,395.332916 325.367523,391.161804 
		C264.568665,420.753021 208.956726,413.632721 158.748489,369.373108 
		C137.760880,350.872101 117.330894,312.492035 115.530106,291.786102 
		C121.392426,286.828918 127.666328,283.115753 131.786087,277.748962 
		C145.514908,259.864563 138.881973,234.597626 118.488098,225.203445 
		C115.906151,224.014099 114.907837,223.018723 115.664177,220.049973 
		C122.729935,192.315964 135.473541,167.606522 156.031815,147.589462 
		C164.660843,139.187592 175.004517,132.546722 184.832458,124.843468 
	M259.276184,184.152557 
		C251.099457,185.287781 242.471573,185.123337 234.822540,187.778671 
		C197.697311,200.666534 178.927521,241.498352 190.011002,278.213287 
		C196.389465,299.342529 209.424988,314.946167 229.658371,324.119385 
		C245.314224,331.217224 261.707489,331.756622 277.661255,326.289398 
		C294.549103,320.502106 307.784088,309.402466 316.239777,293.340302 
		C328.119507,270.773987 329.101166,247.542618 318.221436,224.542648 
		C306.740875,200.272491 287.023407,186.878342 259.276184,184.152557 
	z"/>
	<path fill="var(--main-fill)" opacity="1.000000" stroke="none" 
		d="
	M89.907639,238.958405 
		C98.593414,229.825745 114.661064,231.089493 122.457161,240.286575 
		C131.751236,251.250824 130.759399,265.832397 119.838615,275.803986 
		C111.333580,283.569794 96.363464,282.651733 88.583496,273.849091 
		C80.034599,264.176483 80.501167,246.784286 89.907639,238.958405 
	z"/>
	<path fill="var(--accent-fill)" opacity="1.000000" stroke="none" 
		d="
	M259.735992,184.171509 
		C287.023407,186.878342 306.740875,200.272491 318.221436,224.542648 
		C329.101166,247.542618 328.119507,270.773987 316.239777,293.340302 
		C307.784088,309.402466 294.549103,320.502106 277.661255,326.289398 
		C261.707489,331.756622 245.314224,331.217224 229.658371,324.119385 
		C209.424988,314.946167 196.389465,299.342529 190.011002,278.213287 
		C178.927521,241.498352 197.697311,200.666534 234.822540,187.778671 
		C242.471573,185.123337 251.099457,185.287781 259.735992,184.171509 
	z"/>
<text x="520" y="480" fill="var(--accent-fill)" font-size="636" font-family="Open Sans, Open Sans Placeholder, sans-serif">Avalonia UI</text>
</g>

</svg>